<svg width="24" height="21" viewBox="0 0 24 21" fill="#01C4C6" xmlns="http://www.w3.org/2000/svg">
<path d="M1.44252 8.60673C1.54072 8.59079 1.6401 8.58344 1.73954 8.58473H18.6711L18.3019 8.41301C17.941 8.2422 17.6127 8.00974 17.3317 7.72613L12.5836 2.97811C11.9583 2.38117 11.8532 1.42089 12.3346 0.702833C12.8949 -0.0623351 13.9694 -0.228473 14.7346 0.331813C14.7964 0.377104 14.8552 0.426473 14.9104 0.479599L23.4964 9.06554C24.1674 9.73578 24.1679 10.823 23.4977 11.494C23.4973 11.4944 23.4968 11.4949 23.4964 11.4954L14.9104 20.0813C14.2389 20.751 13.1516 20.7495 12.4819 20.0779C12.4292 20.0251 12.38 19.9688 12.3346 19.9096C11.8532 19.1915 11.9583 18.2312 12.5836 17.6343L17.3231 12.8777C17.575 12.6255 17.8647 12.414 18.1817 12.2509L18.6968 12.0191H1.83404C0.956821 12.0517 0.187199 11.4389 0.0224018 10.5767C-0.129408 9.64053 0.506382 8.75859 1.44252 8.60673Z" />
</svg>
