<svg width="131" height="32" viewBox="0 0 131 32" fill="none" xmlns="http://www.w3.org/2000/svg">
<path d="M131 0H86.9783V32H131V0Z" fill="#C90808"/>
<path d="M92.2787 4.75073H95.204V19.443C95.204 20.7522 95.6183 21.8284 96.4473 22.6732C97.2759 23.518 98.3728 23.9401 99.7382 23.9401C101.181 23.9401 102.317 23.5301 103.146 22.7095C103.975 21.8892 104.389 20.776 104.389 19.3694V4.75073H107.315V19.6773C107.315 21.8455 106.639 23.5372 105.289 24.7529C103.938 25.9689 102.098 26.5769 99.7673 26.5769C97.3685 26.5769 95.5207 25.9813 94.2242 24.7898C92.9273 23.5984 92.279 21.8896 92.279 19.6627V4.75073H92.2787Z" fill="white"/>
<path d="M122.891 26.2111L117.567 17.5977L112.653 26.2111H109.698L116.017 15.0783L110.21 4.73657L113.092 4.75151L117.67 12.8667L122.716 4.75151H125.656L119.001 15.1366L125.991 26.2107H122.891V26.2111Z" fill="white"/>
<path d="M14.7792 25.3774L13.2818 20.8512H5.20236L3.60125 25.3774H0.280457L9.10112 3.62451H9.88677L18.0698 25.3774H14.7792ZM9.35318 9.2494L5.98801 18.6979H12.4368L9.35318 9.2494Z" fill="white"/>
<path d="M22.7993 9.68896V19.6939C22.7993 22.1163 23.8615 23.327 25.9866 23.327C26.9157 23.327 27.7656 23.0632 28.5367 22.5359C29.3074 22.0086 29.8165 21.3985 30.0636 20.7048V9.68896H32.8803V25.3775H30.0636V23.2093C29.7469 23.8244 29.1121 24.3883 28.1586 24.9014C27.2047 25.4138 26.2731 25.6705 25.3639 25.6705C23.6243 25.6705 22.2927 25.1773 21.3686 24.191C20.4445 23.2047 19.9826 21.8031 19.9826 19.9869V9.68896H22.7993Z" fill="white"/>
<path d="M45.3033 5.74861C44.73 5.55341 44.1964 5.45563 43.7022 5.45563C42.8423 5.45563 42.133 5.77777 41.5749 6.42239C41.0165 7.06701 40.7375 7.8823 40.7375 8.86861C40.7375 9.13243 40.762 9.40586 40.8113 9.68888H44.0434V12.0327H40.8113V25.3774H37.9946V12.0327H35.6821V9.68888H37.9946C37.9946 7.6871 38.4934 6.11483 39.4921 4.97208C40.4904 3.82932 41.8096 3.2583 43.4501 3.2583C44.2706 3.2583 45.1499 3.40479 46.0889 3.69777L45.3033 5.74861Z" fill="white"/>
<path d="M56.9112 23.5759C55.7844 24.9725 54.0597 25.6708 51.7372 25.6708C50.4918 25.6708 49.4119 25.2239 48.4977 24.3304C47.5836 23.4365 47.1266 22.3258 47.1266 20.9978C47.1266 19.406 47.8306 18.0605 49.239 16.9619C50.6473 15.8632 52.4433 15.3139 54.6277 15.3139C55.2206 15.3139 55.8926 15.4408 56.6439 15.6947C56.6439 13.1556 55.4975 11.8863 53.2045 11.8863C51.445 11.8863 50.0914 12.3549 49.1428 13.2925L47.9567 10.9633C48.4903 10.5338 49.229 10.1651 50.173 9.85751C51.1166 9.54995 52.0187 9.396 52.8786 9.396C55.1812 9.396 56.854 9.91368 57.8967 10.9487C58.9394 11.9841 59.4605 13.6292 59.4605 15.8852V21.5105C59.4605 22.8872 59.8755 23.8052 60.7059 24.2643V25.6559C59.5596 25.6559 58.7019 25.4945 58.1339 25.1724C57.5658 24.8502 57.1579 24.3183 56.9112 23.5759ZM56.6442 17.6723C55.7549 17.4771 55.1322 17.3796 54.7765 17.3796C53.3532 17.3796 52.192 17.7409 51.2927 18.4637C50.3931 19.1862 49.9437 20.041 49.9437 21.0269C49.9437 22.6582 50.9171 23.4735 52.864 23.4735C54.2873 23.4735 55.5476 22.8047 56.6442 21.4664V17.6723Z" fill="white"/>
<path d="M65.2575 25.3775V12.0328H63.0784V9.68896H68.0745V25.3775H65.2575Z" fill="white"/>
<path d="M73.5595 11.886H71.7213V9.68871H73.5595V6.40729L76.3765 5.33813V9.68871H80.735V11.886H76.3765V19.6788C76.3765 20.9972 76.6013 21.9348 77.0511 22.4912C77.5005 23.0476 78.2244 23.3264 79.2227 23.3264C79.9441 23.3264 80.6903 23.1458 81.4614 22.7845L81.8764 25.2308C80.7102 25.5237 79.4304 25.6702 78.0369 25.6702C76.7816 25.6702 75.7219 25.2087 74.8571 24.2857C73.9919 23.3627 73.5599 22.1982 73.5599 20.792V11.886H73.5595Z" fill="white"/>
<path d="M65.9604 8.06679C67.3361 8.06679 68.4512 6.94993 68.4512 5.57221C68.4512 4.1945 67.3361 3.07764 65.9604 3.07764C64.5848 3.07764 63.4697 4.1945 63.4697 5.57221C63.4697 6.94993 64.5848 8.06679 65.9604 8.06679Z" fill="#C90808"/>
</svg>
